<svg xmlns="http://www.w3.org/2000/svg" fill="none" viewBox="0 0 24 24">
  <g stroke="currentColor" stroke-linecap="round" stroke-linejoin="round" stroke-width="1">
    <path d="M18.99 13.8 19 15h-4.5a.5.5 0 0 1-.5-.5v-3.19C14 6.72 16.23 3 18.99 3l.01.01V3v12"/>
    <path d="M16 15h3v4.5c0 .83-.67 1.5-1.5 1.5v0a1.5 1.5 0 0 1-1.5-1.5V15Z" clip-rule="evenodd"/>
    <path d="M7.5 10.4V13"/>
    <rect width="3" height="8" x="6" y="13" rx="1.5"/>
    <path d="M7.5 7.5V3.25M10 3v5.4a2 2 0 0 1-2 2H7a2 2 0 0 1-2-2V3m5 4.5H5"/>
  </g>
</svg>